<svg xmlns="http://www.w3.org/2000/svg" width="215" height="300"><polygon fill="#fff" points="210.416,2.129 2.261,2.129 2.261,297.895 211.941,297.895 211.941,2.129"/><rect x="7.743" y="7.687" width="198.753" height="284.773"/><rect x="18.236" y="54.59" fill="#fff" width="177.627" height="176.649"/><path d="M212.7,0H0v300h214.2V0H212.7z M211.1,297.1H3.1V2.9h208.1V297.1z"/><path fill="#fff" d="M27.3,248.8c-0,0.3-0,0.6-0.1,0.9c-0.2,2.9-1.2,5.1-4.6,5.1c-5.1,0-5.4-3.1-5.4-7.3v-2.3c0.1-4,0.5-7,5.4-7c2.7,0,4.3,1.4,4.5,4.1c0,0.4,0.1,0.8,0.1,1.2h-3c-0.1-1-0-2.9-1.5-2.9c-2.4,0-2.2,2.8-2.2,4v4.4c0,1.3,0.1,3.4,2.2,3.4c1.7,0,1.5-2.6,1.5-3.6H27.3z"/><path fill="#fff" d="M29.6,245.2c0.1-4,0.5-7,5.4-7c4.9,0,5.2,3,5.4,7v2.3c0,4.2-0.3,7.3-5.4,7.3c-5,0-5.4-3.1-5.4-7.3V245.2z M32.7,249c0,1.3,0.1,3.4,2.2,3.4c2.2,0,2.2-2.2,2.2-3.7v-4c0-1.3,0.1-4.1-2.2-4.1c-2.4,0-2.2,2.8-2.2,4V249z"/><path fill="#fff" d="M50.5,238.6h3.1v15.8h-3.2l-2.4-5.6c-0.8-1.9-1.5-3.8-2.2-6.3h-0c0.1,1.3,0.2,2.9,0.3,4.5c0.1,1.6,0.2,3.1,0.2,4.4v3h-3.1v-15.8h3.2l2.4,5.8c0.8,1.8,1.5,3.7,2.2,6.3h0c-0.1-1.4-0.2-3-0.3-4.5c-0.1-1.5-0.2-3-0.2-4.4V238.6z"/><polygon fill="#fff" points="55.432,238.604 65.667,238.604 65.667,240.929 62.1,240.929 62.1,254.404 59.016,254.404 59.016,240.929 55.432,240.929"/><polygon fill="#fff" points="67.417,254.404 67.417,238.604 76.07,238.604 76.07,240.929 70.497,240.929 70.497,244.904 75.639,244.904 75.639,247.229 70.497,247.229 70.497,252.088 76.07,252.088 76.07,254.404"/><path fill="#fff" d="M85.8,238.6h3.1v15.8h-3.2l-2.4-5.6c-0.8-1.9-1.5-3.8-2.2-6.3h-0c0.1,1.3,0.2,2.9,0.3,4.5c0.1,1.6,0.2,3.1,0.2,4.4v3h-3.1v-15.8h3.2l2.4,5.8c0.8,1.8,1.4,3.7,2.2,6.3h0c-0.1-1.4-0.2-3-0.3-4.5c-0.1-1.5-0.2-3-0.2-4.4V238.6z"/><polygon fill="#fff" points="90.771,238.604 101.004,238.604 101.004,240.929 97.421,240.929 97.421,254.404 94.356,254.404 94.356,240.929 90.771,240.929"/><path fill="#fff" d="M111.4,247.6v6.8h-3.1v-15.8h5.8c2.7,0,4.7,0.9,4.7,3.8c0,1.7-0.4,3.5-2.5,3.8v0.1c1.8,0.2,2.4,1.3,2.4,2.9c0,0.6-0.1,4.5,0.7,5v0.3h-3.4c-0.4-1-0.3-3-0.3-4c-0-1,0-2.3-1.1-2.6c-0.8-0.2-1.7-0.2-2.6-0.2H111.4z M111.4,245.3h2.4c1-0.1,1.8-0.7,1.8-2.3c0-1.8-0.8-2.1-1.9-2.1h-2.3V245.3z"/><path fill="#fff" d="M120.4,254.4l3.9-15.8h4.1l3.7,15.8h-3.3l-0.8-4h-3.6l-0.8,4H120.4z M125,248.1h2.6l-0.8-4.5c-0.1-0.7-0.2-1.4-0.3-2.2c-0-0.4-0.1-0.7-0.1-1.1h-0c-0.1,0.3-0.1,0.7-0.1,1.1c-0.1,0.7-0.2,1.4-0.3,2.2L125,248.1z"/><polygon fill="#fff" points="132.816,238.604 143.055,238.604 143.055,240.929 139.486,240.929 139.486,254.404 136.402,254.404 136.402,240.929 132.816,240.929"/><polygon fill="#fff" points="144.82,254.404 144.82,238.604 153.457,238.604 153.457,240.929 147.9,240.929 147.9,244.904 153.012,244.904 153.012,247.229 147.9,247.229 147.9,252.088 153.457,252.088 153.457,254.404"/><path fill="#fff" d="M156,254.4v-15.8h6.4c0.7,0,2.2,0.3,3.2,1.8c0.7,1.1,0.9,2.9,0.9,5.5c0,3.1,0,6.7-2.5,8.2c-0.7,0.4-1.5,0.4-2.3,0.4H156z M160.4,252.1c2.7,0,2.9-1.4,2.9-6c0-3.7-0.4-5.2-2.2-5.2h-2v11.2H160.4z"/><path fill="#fff" d="M174.7,254.4v-15.8h4.9c1.3,0,2.6,0.1,3.5,1.2c0.7,0.9,0.8,1.8,0.8,2.8c0,1.4-0.3,2.7-2,3.3v0c1.7,0.2,2.4,1.6,2.4,3.7c0,0.6-0,1.3-0.2,1.9c-0.7,2-1.8,2.8-4,2.8H174.7z M178.4,252.1c0.6,0,1.3,0.1,1.9-0.2c0.8-0.4,0.9-1.4,0.9-2.2c0-1.7-0.3-2.4-2.2-2.4h-1.2v4.8H178.4z M178.3,245c0.8,0,1.7,0,2.2-0.6c0.3-0.4,0.3-0.9,0.3-1.7c0-1.2-0.3-1.8-1.7-1.8h-1.4v4.1H178.3z"/><path fill="#fff" d="M190.8,242.7c0.3,0.8,0.6,1.6,0.7,2.4h0c0.2-1.2,0.6-2.1,1-3l1.5-3.6h3.4l-4.3,9.1v6.7h-3.1v-6.7l-4.3-9.1h3.4L190.8,242.7z"/><polygon fill="#fff" points="17.82,282.422 17.82,259.066 50.976,259.066 50.976,264.534 31.139,264.534 31.139,267.867 47.927,267.867 47.927,273.315 31.139,273.315 31.139,276.975 51.749,276.975 51.749,282.422"/><path fill="#fff" d="M85.1,265.9c-0.2-0.8-1-1.3-1.9-1.6c-0.9-0.3-2.1-0.4-3.4-0.4c-2.9,0-4.2,0.5-4.2,1.4c0,3.5,23.4,1.3,23.4,9.8c0,5.4-7.9,8-19,8c-10.7,0-17.7-3.6-18-7.8h12.8c0.3,0.8,1.1,1.5,2.2,1.8c1.1,0.4,2.5,0.6,3.8,0.6c3.3,0,5.5-0.6,5.5-1.7c0-3.5-23.4-1.1-23.4-10c0-5,7.5-7.5,17.6-7.5c11.3,0,16.4,3.3,17.4,7.4H85.1z"/><path fill="#fff" d="M123.2,274.3v8.1h-13.3v-23.4h19.2c13.5,0,18,2.1,18,6.7c0,2.7-2.1,4.9-6.8,5.7c4.3,0.9,6.9,1.5,6.9,6.2c0,3-0.2,4.1,1.4,4.1v0.7h-13.5c-0.3-0.5-0.7-2-0.7-4.1c0-3.1-0.9-4-7.1-4H123.2z M123.2,269.2h5.2c4.1,0,6.3-0.6,6.3-2.2c0-1.6-2.2-2.4-5.4-2.4h-6.2V269.2z"/><path fill="#fff" d="M160.1,282.4v-23.4h19.4c9.2,0,16.4,1.3,16.4,5.9c0,2.4-2.7,4.2-5.3,5.1c4.4,0.7,6.8,2.8,6.8,5.4c0,5.2-6.9,7-17.5,7H160.1z M173.4,272.7v4.3h5.8c3.3,0,5.8-0.4,5.8-2.1c0-2-3.1-2.2-7.3-2.2H173.4z M173.4,264.5v3.9h5.5c2.6,0,4.6-0.7,4.6-2c0-1.8-2.6-1.9-5.4-1.9H173.4z"/><path d="M23.5,70.4c0-5.2,4.6-9.3,10.3-9.3c5.7,0,10.2,4.2,10.2,9.3c0,5.2-4.5,9.4-10.2,9.4C28,79.8,23.5,75.6,23.5,70.4M42.1,70.4c0-4.2-3.7-7.7-8.4-7.7c-4.7,0-8.5,3.4-8.5,7.7c0,4.3,3.8,7.7,8.5,7.7C38.4,78.1,42.1,74.7,42.1,70.4M31.6,71v4.7h-1.9V64.7h3.9c2.2,0,4.5,0.6,4.5,3.1c0,1.3-0.8,2.3-2.4,2.6v0c1.6,0.3,1.8,1,2,2.2c0.2,1,0.3,2.2,0.7,3.2h-2.4c-0.1-0.6-0.3-1.3-0.4-2c-0.1-0.9-0.1-1.8-0.7-2.3c-0.5-0.4-1.1-0.4-1.8-0.4H31.6M33.6,69.3c1.8-0.1,2.2-0.8,2.2-1.6c0-0.8-0.4-1.3-1.9-1.3h-2.3v2.8H33.6z"/><path fill="#fff" d="M181,31.2v-0.1c2.1-0.6,2.7-1.9,2.7-5.3v-2.6c0-4.1-1.2-6.1-5.2-6.1c-4,0-5.2,2.1-5.2,6.1v2.6c0,3.4,0.6,4.8,2.7,5.3v0.1c-2.1,0.7-2.9,1.4-2.9,5.5v2.4c0,5.2,1.1,7.1,5.4,7.1c4.4,0,5.4-1.9,5.4-7.1v-2.4C183.9,32.6,183.1,31.8,181,31.2M176.7,23.3c0-1.6,0-3.2,1.8-3.2c1.8,0,1.8,1.6,1.8,3.2v3.6c0,1.3,0,2.7-1.8,2.7c-1.8,0-1.8-1.4-1.8-3.9V23.3z M180.5,39.7c0,1.8,0,3.6-2,3.6c-2,0-2-1.8-2-3.6v-3.5c0-1.8,0-3.6,2-3.6c2,0,2,1.8,2,3.6V39.7z"/><path fill="#fff" d="M162.1,21.9v3.7c1.4-1.1,2.1-1.8,2.8-3h0.1v23.3h3.4V17.2h-3.1C164.9,18.5,162.9,21.2,162.1,21.9"/><polygon fill="#fff" points="149.355,29.328 149.266,29.328 146.094,17.223 142.453,17.223 147.486,34.148 147.486,45.919 151.133,45.919 151.133,34.148 156.217,17.223 152.998,17.223"/><polygon fill="#fff" points="139.439,17.223 135.801,17.223 135.801,45.919 145.582,45.919 145.582,42.576 139.439,42.576"/><polygon fill="#fff" points="129.666,41.08 129.58,41.08 125.271,17.223 120.217,17.223 120.217,45.919 123.449,45.919 123.449,21.435 123.523,21.435 127.83,45.919 133.086,45.919 133.086,17.223 129.666,17.223"/><path fill="#fff" d="M111.4,17c-5,0-6.2,3.5-6.2,7.6v14.5c0,4.5,1.5,7.1,6.2,7.1c5,0,6.2-3.5,6.2-7.6V24.1C117.6,19.6,116.1,17,111.4,17M114,39.3c0,2.5-1,3.8-2.5,3.8c-1.5,0-2.5-1.3-2.5-3.8V24.2c0-2.8,0.9-4.1,2.5-4.1c1.7,0,2.5,1.3,2.5,4.1V39.3z"/><path fill="#fff" d="M88.3,23.2c0-2.2,0.7-3.1,2.2-3.1c1.4,0,2,1,2,2.6v2.3h3.4v-2.7c0-2-0.4-3-1.1-3.7c-0.9-0.9-2.3-1.6-4.3-1.6c-4,0-6,2-6,6.7c0,3.9,1.9,6.2,4.3,8.7c3.8,4.1,3.9,4.9,3.9,7.3c0,1.9-0.5,3.3-2.4,3.3c-1.5,0-2.1-1.2-2.1-3.1v-2.3h-3.7v3.4c0,3.6,2.3,5.1,5.7,5.1c4.3,0,6-2.6,6-7.1c0-3.5-0.7-4.9-4.2-8.9C88.7,26.4,88.3,25.2,88.3,23.2"/><polygon fill="#fff" points="71.072,20.561 75.45,20.561 75.45,45.919 79.096,45.919 79.096,20.561 83.487,20.561 83.487,17.223 71.072,17.223"/><polygon fill="#fff" points="67.993,17.223 64.336,17.223 64.336,45.919 74.12,45.919 74.12,42.576 67.993,42.576"/><path fill="#fff" d="M58.1,40.1c0,2-0.7,3-2.5,3c-1.9,0-2.6-1-2.6-3V17.2h-3.7v22.2c0,3.3,1.2,6.7,6.2,6.7c5,0,6.2-3.4,6.2-6.7V17.2h-3.6V40.1z"/><path fill="#fff" d="M40.5,17.2h-5.9v28.7h5.3c5.8,0,7-2.3,7-9.6v-8.6C46.9,19.4,46.4,17.2,40.5,17.2M43.2,36.1c0,4.9-0.5,6.5-3.2,6.5h-1.8V20.6h1.5c3.1,0,3.5,1.4,3.5,5.7V36.1z"/><path fill="#fff" d="M23.2,17.2l-5.8,28.7h3.6l1.2-7.3h5.7l1.2,7.3h3.7l-5.4-28.7H23.2z M22.8,35.3l2.3-13.8h0.1l2.3,13.8H22.8z"/><polygon fill="#fff" points="193.096,29.445 193.096,23.445 190.891,23.445 190.891,29.445 185.396,29.445 185.396,31.818 190.891,31.818 190.891,37.818 193.096,37.818 193.096,31.818 198.6,31.818 198.6,29.445"/><path d="M160.5,144.5c-2.2,1.1-4.6,1.9-7.3,2.6c-18.9,4.6-32.3-5.5-37.5-23.2c-3.8-13-1.5-24.5,7.4-31.5l-21.8-30.3L53.7,73.8l-9.6,154.2l45.8-11.2l-0.2-20l46.6-11.4l11,17.3l46.6-11.4L160.5,144.5M90.1,165.1l-0.4-54.3l30,47.1L90.1,165.1z"/><path d="M127.1,121.2c3.6,12.1,10.8,21.3,23.8,18.2c1.8-0.4,3.3-1,4.6-1.8l-27-37.5C124.5,105.2,124.7,113,127.1,121.2"/><path d="M137.7,94.6c12.9-3.2,20.2,6,23.7,18.2c3.1,10.5,2.6,20.3-5.9,24.8l5,7c13-6.4,16.9-19.4,12.4-34.6c-5.2-17.7-18.6-27.8-37.5-23.2c-5,1.2-9.1,3.2-12.3,5.7l5.4,7.6C130.5,97.5,133.5,95.6,137.7,94.6"/></svg>