<svg xmlns="http://www.w3.org/2000/svg" width="215" height="300"><polygon fill="#fff" points="210.406,2.135 2.254,2.135 2.254,297.894 211.934,297.894 211.934,2.135"/><rect x="7.743" y="7.701" width="198.746" height="284.747"/><rect x="18.229" y="54.603" fill="#fff" width="177.632" height="176.631"/><path d="M212.7,0H0v300h214.2V0H212.7z M211.1,297.1H3.1V2.9h208.1V297.1z"/><path fill="#fff" d="M27.3,248.8c-0,0.3-0,0.6-0.1,0.9c-0.2,2.9-1.1,5.1-4.6,5.1c-5.1,0-5.4-3.1-5.4-7.3v-2.3c0.1-4,0.5-7,5.4-7c2.7,0,4.3,1.4,4.5,4.1c0.1,0.4,0.1,0.8,0.1,1.2h-3c-0.1-1-0-2.9-1.5-2.9c-2.4,0-2.2,2.8-2.2,4v4.4c0,1.3,0.1,3.4,2.2,3.4c1.7,0,1.5-2.6,1.6-3.6H27.3z"/><path fill="#fff" d="M29.6,245.2c0.1-4,0.5-7,5.4-7c4.9,0,5.2,3,5.4,7v2.3c0,4.2-0.3,7.3-5.4,7.3c-5,0-5.4-3.1-5.4-7.3V245.2z M32.7,249c0,1.3,0.1,3.4,2.2,3.4c2.2,0,2.2-2.2,2.2-3.7v-4c0-1.3,0.1-4.1-2.2-4.1c-2.4,0-2.2,2.8-2.2,4V249z"/><path fill="#fff" d="M50.5,238.6h3.1v15.8h-3.2l-2.4-5.6c-0.8-1.9-1.5-3.8-2.2-6.3h-0c0.1,1.3,0.2,2.9,0.3,4.5c0.1,1.6,0.2,3.1,0.2,4.4v3h-3.1v-15.8h3.2l2.4,5.8c0.8,1.8,1.5,3.7,2.2,6.3h0c-0.1-1.4-0.2-3-0.3-4.5c-0.1-1.5-0.2-3-0.2-4.4V238.6z"/><polygon fill="#fff" points="55.43,238.606 65.665,238.606 65.665,240.931 62.095,240.931 62.095,254.405  59.015,254.405 59.015,240.931 55.43,240.931"/><polygon fill="#fff" points="67.416,254.405 67.416,238.606 76.067,238.606 76.067,240.931 70.495,240.931  70.495,244.907 75.634,244.907 75.634,247.231 70.495,247.231 70.495,252.097 76.067,252.097 76.067,254.405"/><path fill="#fff" d="M85.8,238.6h3.1v15.8h-3.2l-2.4-5.6c-0.8-1.9-1.5-3.8-2.2-6.3h-0c0.1,1.3,0.2,2.9,0.3,4.5c0.1,1.6,0.2,3.1,0.2,4.4v3h-3.1v-15.8h3.2l2.4,5.8c0.8,1.8,1.4,3.7,2.2,6.3h0c-0.1-1.4-0.2-3-0.3-4.5c-0.1-1.5-0.2-3-0.2-4.4V238.6z"/><polygon fill="#fff" points="90.769,238.606 101.003,238.606 101.003,240.931 97.419,240.931 97.419,254.405  94.354,254.405 94.354,240.931 90.769,240.931"/><path fill="#fff" d="M111.4,247.6v6.8h-3.1V238.6h5.8c2.7,0,4.7,0.9,4.7,3.8c0,1.7-0.4,3.5-2.5,3.8v0.1c1.8,0.2,2.4,1.3,2.4,2.9c0,0.6-0.1,4.5,0.7,5v0.3h-3.4c-0.4-1-0.3-3-0.3-4c-0-1,0-2.3-1.1-2.6c-0.8-0.2-1.7-0.2-2.6-0.2H111.4z  M111.4,245.3h2.4c1-0.1,1.8-0.7,1.8-2.3c0-1.8-0.8-2.1-1.9-2.1h-2.3V245.3z"/><path fill="#fff" d="M120.4,254.4l3.9-15.8h4.1l3.7,15.8h-3.3l-0.8-4h-3.6l-0.8,4H120.4z M125,248.1h2.6l-0.8-4.5c-0.2-0.7-0.2-1.4-0.3-2.2c-0-0.4-0.1-0.7-0.1-1.1h-0c-0.1,0.3-0.1,0.7-0.1,1.1c-0.1,0.7-0.2,1.4-0.3,2.2L125,248.1z"/><polygon fill="#fff" points="132.814,238.606 143.049,238.606 143.049,240.931 139.479,240.931  139.479,254.405 136.398,254.405 136.398,240.931 132.814,240.931"/><polygon fill="#fff" points="144.813,254.405 144.813,238.606 153.451,238.606 153.451,240.931  147.893,240.931 147.893,244.907 153.004,244.907 153.004,247.231 147.893,247.231 147.893,252.097 153.451,252.097  153.451,254.405"/><path fill="#fff" d="M156,254.4v-15.8h6.4c0.7,0,2.2,0.3,3.2,1.8c0.7,1.1,0.9,2.9,0.9,5.5c0,3.1,0,6.7-2.5,8.2c-0.7,0.4-1.5,0.4-2.3,0.4H156z M160.4,252.1c2.7,0,2.9-1.4,2.9-6c0-3.8-0.4-5.2-2.2-5.2h-2v11.2H160.4z"/><path fill="#fff" d="M174.7,254.4V238.6h4.9c1.3,0,2.6,0.1,3.5,1.2c0.7,0.9,0.8,1.8,0.8,2.8c0,1.4-0.3,2.7-2,3.3v0c1.7,0.2,2.4,1.6,2.4,3.7c0,0.6-0,1.3-0.2,1.9c-0.7,2-1.8,2.8-4,2.8H174.7z M178.4,252.1c0.6,0,1.3,0.1,1.9-0.2c0.8-0.4,0.9-1.4,0.9-2.2c0-1.7-0.4-2.4-2.2-2.4h-1.2v4.8H178.4z M178.3,245c0.8,0,1.7,0,2.2-0.6c0.3-0.4,0.3-0.9,0.3-1.7c0-1.2-0.3-1.7-1.7-1.8h-1.4v4.1H178.3z"/><path fill="#fff" d="M190.8,242.7c0.3,0.8,0.6,1.6,0.7,2.4h0.1c0.2-1.2,0.6-2.1,1-3l1.5-3.6h3.4l-4.3,9.1v6.7h-3.1v-6.7l-4.3-9.1h3.3L190.8,242.7z"/><polygon fill="#fff" points="17.823,282.423 17.823,259.068 50.978,259.068 50.978,264.535 31.139,264.535  31.139,267.875 47.926,267.875 47.926,273.308 31.139,273.308 31.139,276.976 51.748,276.976 51.748,282.423"/><path fill="#fff" d="M85.1,265.9c-0.2-0.8-1-1.3-1.9-1.6c-1-0.3-2.1-0.4-3.4-0.4c-2.9,0-4.2,0.5-4.2,1.4c0,3.5,23.4,1.3,23.4,9.8c0,5.4-7.9,8.1-19,8.1c-10.7,0-17.7-3.6-18-7.8h12.8c0.3,0.8,1.1,1.5,2.2,1.8c1.1,0.4,2.5,0.6,3.8,0.6c3.3,0,5.5-0.6,5.5-1.7c0-3.5-23.4-1.1-23.4-10c0-5,7.5-7.5,17.6-7.5c11.3,0,16.4,3.3,17.4,7.4H85.1z"/><path fill="#fff" d="M123.2,274.3v8.1h-13.3v-23.4h19.2c13.5,0,18,2.1,18,6.7c0,2.7-2.1,4.9-6.8,5.7c4.3,0.9,6.9,1.5,6.9,6.2c0,3-0.2,4.1,1.4,4.1v0.7h-13.5c-0.3-0.5-0.7-2-0.7-4.1c0-3.1-0.9-4-7.1-4H123.2z M123.2,269.2h5.2c4.1,0,6.3-0.6,6.3-2.2c0-1.6-2.2-2.4-5.4-2.4h-6.2V269.2z"/><path fill="#fff" d="M160,282.4v-23.4h19.4c9.2,0,16.4,1.3,16.4,5.9c0,2.4-2.7,4.2-5.3,5.1c4.4,0.6,6.8,2.8,6.8,5.3c0,5.2-6.9,7-17.5,7H160z  M173.4,272.7v4.3h5.8c3.3,0,5.8-0.4,5.8-2.1c0-2-3.1-2.2-7.4-2.2H173.4z M173.4,264.5v3.9h5.5c2.6,0,4.6-0.7,4.6-2c0-1.8-2.6-1.8-5.4-1.8H173.4z"/><path d="M23.5,70.4c0-5.1,4.6-9.3,10.3-9.3c5.7,0,10.2,4.2,10.2,9.3c0,5.2-4.6,9.4-10.2,9.4C28,79.8,23.5,75.6,23.5,70.4M42.1,70.4c0-4.2-3.7-7.7-8.4-7.7c-4.7,0-8.5,3.4-8.5,7.7c0,4.3,3.8,7.7,8.5,7.7C38.4,78.1,42.1,74.7,42.1,70.4M31.5,71v4.7h-1.9V64.8h3.9c2.2,0,4.5,0.5,4.5,3.1c0,1.3-0.8,2.3-2.4,2.6v0c1.6,0.3,1.8,1,2,2.2c0.2,1,0.3,2.2,0.7,3.2h-2.4c-0.1-0.6-0.3-1.3-0.4-2c-0.1-0.9-0.1-1.8-0.7-2.3c-0.5-0.4-1.1-0.4-1.8-0.4H31.5M33.5,69.3c1.8-0,2.2-0.7,2.2-1.6c0-0.8-0.4-1.3-1.9-1.3h-2.3v2.8H33.5z"/><polygon fill="#fff" points="188.117,40.505 188.117,34.316 197.162,34.316 197.162,28.59 188.117,28.59  188.117,23.292 197.457,23.292 197.457,17.516 180.879,17.516 180.879,46.217 197.512,46.217 197.512,40.505"/><polygon fill="#fff" points="169.453,33.575 169.342,33.575 163.742,17.516 156.307,17.516 156.307,46.224  163.168,46.224 162.51,30.242 162.594,30.166 168.209,46.224 175.615,46.224 175.615,17.516 168.756,17.516"/><path fill="#fff" d="M142.3,17c-6.3,0-9.9,3.1-9.9,8.5v11.7c0,6.5,2.5,9.8,9.9,9.8c7.3,0,9.7-3.4,9.7-9.8V25.6C152,20.1,148.6,17,142.3,17M144.7,37.8c0,1.7-0.2,4.1-2.5,4.1c-2.3,0-2.6-2.4-2.6-4.1V26c0-1.8,0.3-3.9,2.6-3.9c2.4,0,2.5,2.1,2.5,3.9V37.8z"/><polygon fill="#fff" points="118.365,26.917 118.268,26.917 114.641,17.516 107.332,17.516 114.613,34.163  114.613,46.217 121.837,46.217 121.837,34.163 129.287,17.516 122.063,17.516"/><path fill="#fff" d="M104.7,35.8c-0.1-2-1.6-3.3-3.6-3.7v-0.1c3-1.2,3.8-3.5,3.8-6.5c0-5.7-3-8-8.9-8H85.5V46.2h7.2v-11.3h2.4c1.7,0.1,2.2,1.3,2.5,3.1c0.2,1.8,0,4.1,0.2,6.7c0,0.6,0.2,1.1,0.4,1.6h7.9v-0.4c-0.4-0.3-0.6-0.6-0.7-1C105,43,104.9,38.1,104.7,35.8M95.2,29.7h-2.5v-7c3.5-0.1,5.1,0.1,5.1,3.5C97.8,28,97.3,29.7,95.2,29.7"/><polygon fill="#fff" points="71.503,34.316 80.563,34.316 80.563,28.59 71.503,28.59 71.503,23.292  80.871,23.292 80.871,17.522 64.28,17.522 64.28,46.224 81.332,46.224 81.332,40.505 71.503,40.505"/><polygon fill="#fff" points="49.745,37.662 49.662,37.662 45.965,17.516 38.727,17.516 45.419,46.23  53.932,46.23 60.695,17.516 53.456,17.516"/><polygon fill="#fff" points="25.958,34.316 35.086,34.316 35.086,28.59 25.958,28.59 25.958,23.292  35.381,23.292 35.381,17.522 18.692,17.522 18.692,46.224 35.871,46.224 35.871,40.505 25.958,40.505"/><polygon points="38.433,88.71 148.242,60.897 158.311,96.438 93.568,112.855 97.714,127.395 162.441,111.013  172.535,146.563 107.767,162.958 112.094,178.288 176.861,161.887 186.928,197.435 77.132,225.249"/></svg>