<svg xmlns="http://www.w3.org/2000/svg" height="302" width="215"><g transform="matrix(2.3205112,0,0,2.3205112,-636.57475,-358.92844)"><polygon points="365.48,155.83,275.35,155.83,275.35,283.89,366.14,283.89,366.14,155.83,365.48,155.83" fill="#fff"/><path d="M366.5,154.9h-92.1v129.9h92.7v-129.9h-0.7zm-0.7,128.7h-90.1v-127.4h90.1v127.4z"/><rect height="125" width="87.961" y="157.45" x="276.73" fill="#fff"/><rect y="157.75" width="87.181" x="277.02" height="124.39"/><rect height="78.99" width="78.258" y="178.09" x="281.63" fill="#fff"/><path fill="#fff" d="M285.8,263.8l-0,0.4c-0.1,1.2-0.5,2.2-2,2.2-2.2,0-2.4-1.3-2.4-3.1v-1c0.1-1.7,0.2-3,2.4-3,1.2,0,1.9,0.6,2,1.7,0,0.2,0,0.4,0,0.5h-1.3c-0.1-0.4-0-1.2-0.7-1.2-1.1,0-1,1.2-1,1.7v1.9c0,0.6,0.1,1.5,1,1.5,0.7,0,0.7-1.1,0.7-1.6h1.4z"/><path fill="#fff" d="M286.8,262.3c0.1-1.7,0.2-3,2.4-3,2.2,0,2.3,1.3,2.4,3v1c0,1.8-0.2,3.1-2.4,3.1s-2.4-1.3-2.4-3.1v-1zm1.4,1.6c0,0.6,0.1,1.5,1,1.5,1,0,1-0.9,1-1.6v-1.7c0-0.5,0-1.7-1-1.7-1.1,0-1,1.2-1,1.7v1.9z"/><path fill="#fff" d="M296,259.5h1.3v6.7h-1.4l-1.1-2.4c-0.4-0.8-0.6-1.6-1-2.7h-0c0.1,0.6,0.1,1.2,0.1,1.9,0,0.7,0.1,1.4,0.1,1.9v1.3h-1.4v-6.7h1.4l1,2.5c0.4,0.8,0.6,1.6,1,2.7h0c-0.1-0.6-0.1-1.3-0.1-1.9-0-0.7-0.1-1.3-0.1-1.9v-1.3z"/><polygon points="298.14,259.47,302.63,259.47,302.63,260.46,301.06,260.46,301.06,266.21,299.72,266.21,299.72,260.46,298.14,260.46,298.14,259.47" fill="#fff"/><polygon points="303.41,266.21,303.41,259.47,307.2,259.47,307.2,260.46,304.76,260.46,304.76,262.16,307.01,262.16,307.01,263.14,304.76,263.14,304.76,265.22,307.2,265.22,307.2,266.21,303.41,266.21" fill="#fff"/><path fill="#fff" d="M311.5,259.5h1.3v6.7h-1.4l-1.1-2.4c-0.4-0.8-0.7-1.6-1-2.7h-0c0.1,0.6,0.1,1.2,0.2,1.9,0,0.7,0.1,1.4,0.1,1.9v1.3h-1.4v-6.7h1.4l1,2.5c0.4,0.8,0.6,1.6,1,2.7h0c-0.1-0.6-0.1-1.3-0.1-1.9-0-0.7-0.1-1.3-0.1-1.9v-1.3z"/><polygon points="313.64,259.47,318.14,259.47,318.14,260.46,316.57,260.46,316.57,266.21,315.22,266.21,315.22,260.46,313.64,260.46,313.64,259.47" fill="#fff"/><path fill="#fff" d="M322.7,263.3v2.9h-1.4v-6.7h2.6c1.2,0,2.1,0.4,2.1,1.6,0,0.7-0.2,1.5-1.1,1.6v0c0.8,0.1,1,0.6,1,1.2,0,0.3-0,1.9,0.3,2.1v0.1h-1.5c-0.2-0.4-0.1-1.3-0.2-1.7-0-0.4,0-1-0.5-1.1-0.4-0.1-0.8-0.1-1.1-0.1h-0.2zm0-1h1.1c0.4-0,0.8-0.3,0.8-1,0-0.8-0.3-0.9-0.9-0.9h-1v1.9z"/><path fill="#fff" d="M326.7,266.2l1.7-6.7h1.8l1.6,6.7h-1.4l-0.4-1.7h-1.6l-0.4,1.7h-1.4zm2-2.7h1.2l-0.4-1.9c-0.1-0.3-0.1-0.6-0.1-0.9l-0.1-0.5h-0l-0,0.5c-0,0.3-0.1,0.6-0.1,0.9l-0.4,1.9z"/><polygon points="332.1,259.47,336.58,259.47,336.58,260.46,335.02,260.46,335.02,266.21,333.67,266.21,333.67,260.46,332.1,260.46,332.1,259.47" fill="#fff"/><polygon points="337.36,266.21,337.36,259.47,341.15,259.47,341.15,260.46,338.71,260.46,338.71,262.16,340.95,262.16,340.95,263.14,338.71,263.14,338.71,265.22,341.15,265.22,341.15,266.21,337.36,266.21" fill="#fff"/><path fill="#fff" d="M342.3,266.2v-6.7h2.8c0.3,0,1,0.1,1.4,0.8,0.3,0.5,0.4,1.2,0.4,2.3,0,1.3,0,2.9-1.1,3.5-0.3,0.2-0.7,0.2-1,0.2h-2.5zm1.9-1c1.2,0,1.3-0.6,1.3-2.5,0-1.6-0.2-2.2-1-2.2h-0.9v4.8h0.6z"/><path fill="#fff" d="M350.5,266.2v-6.7h2.2c0.6,0,1.2,0,1.5,0.5,0.3,0.4,0.4,0.8,0.4,1.2,0,0.6-0.1,1.2-0.9,1.4v0c0.8,0.1,1.1,0.7,1.1,1.6,0,0.3-0,0.6-0.1,0.8-0.3,0.8-0.8,1.2-1.8,1.2h-2.4zm1.6-1c0.3,0,0.6,0,0.8-0.1,0.4-0.2,0.4-0.6,0.4-0.9,0-0.7-0.2-1-1-1h-0.5v2h0.3zm-0.1-3c0.3,0,0.8,0,1-0.2,0.1-0.2,0.1-0.4,0.1-0.7,0-0.5-0.1-0.8-0.7-0.8h-0.6v1.7h0.2z"/><path fill="#fff" d="M357.5,261.2c0.2,0.3,0.3,0.7,0.3,1h0c0.1-0.5,0.3-0.9,0.5-1.3l0.6-1.5h1.5l-1.9,3.9v2.9h-1.3v-2.9l-1.9-3.9h1.5l0.8,1.8z"/><polygon points="281.64,278.13,281.64,268.2,296.18,268.2,296.18,270.52,287.49,270.52,287.49,271.94,294.85,271.94,294.85,274.25,287.49,274.25,287.49,275.82,296.53,275.82,296.53,278.13,281.64,278.13" fill="#fff"/><path fill="#fff" d="M311.2,271.1c-0.1-0.3-0.4-0.6-0.8-0.7-0.4-0.1-1-0.2-1.5-0.2-1.3,0-1.9,0.2-1.9,0.6,0,1.5,10.3,0.6,10.3,4.2,0,2.3-3.4,3.4-8.3,3.4-4.7,0-7.8-1.5-7.9-3.3h5.6c0.1,0.4,0.5,0.6,1,0.8,0.5,0.2,1.1,0.3,1.7,0.3,1.5,0,2.4-0.3,2.4-0.7,0-1.5-10.3-0.5-10.3-4.3,0-2.1,3.3-3.2,7.7-3.2,5,0,7.2,1.4,7.6,3.2h-5.5z"/><path fill="#fff" d="M327.9,274.7v3.5h-5.9v-9.9h8.4c6,0,7.9,0.9,7.9,2.8,0,1.1-0.9,2.1-3,2.4,1.9,0.4,3,0.6,3,2.6,0,1.3-0.1,1.7,0.6,1.7v0.3h-5.9c-0.1-0.2-0.3-0.9-0.3-1.7,0-1.3-0.4-1.7-3.1-1.7h-1.8zm0-2.2h2.3c1.8,0,2.8-0.3,2.8-0.9,0-0.7-1-1-2.4-1h-2.7v2z"/><path fill="#fff" d="M344.1,278.1v-9.9h8.5c4,0,7.2,0.5,7.2,2.5,0,1-1.2,1.8-2.3,2.2,1.9,0.3,3,1.2,3,2.3,0,2.2-3,3-7.7,3h-8.7zm5.8-4.2v1.8h2.6c1.4,0,2.5-0.2,2.5-0.9,0-0.9-1.4-0.9-3.2-0.9h-1.9zm0-3.5v1.7h2.4c1.2,0,2-0.3,2-0.9,0-0.8-1.2-0.8-2.4-0.8h-2.1z"/><path d="M283.1,182.6c0-2,1.7-3.6,3.8-3.6s3.7,1.6,3.7,3.6c0,2-1.7,3.6-3.7,3.6s-3.8-1.6-3.8-3.6m6.8,0c0-1.6-1.4-2.9-3.1-2.9s-3.1,1.3-3.1,2.9c0,1.6,1.4,3,3.1,3s3.1-1.3,3.1-3m-3.9,0.2v1.8h-0.7v-4.2h1.4c0.8,0,1.7,0.2,1.7,1.2,0,0.5-0.3,0.9-0.9,1v0c0.6,0.1,0.7,0.4,0.8,0.8,0.1,0.4,0.1,0.8,0.3,1.2h-0.9c-0.1-0.2-0.1-0.5-0.2-0.8-0.1-0.4-0.1-0.7-0.3-0.9-0.2-0.2-0.4-0.2-0.6-0.2h-0.6zm0.7-0.7c0.7-0,0.8-0.3,0.8-0.6,0-0.3-0.2-0.5-0.7-0.5h-0.8v1.1h0.7z"/><path fill="#fff" d="M281.6,174.9v-13.3h2.6c1.4,0,2.6,0.7,2.6,2.7v1.2c0,1-0.4,2.1-1.7,2.2v0c1.4,0.1,1.7,0.7,1.7,2.2v2.7c0,1.3,0.2,1.8,0.3,2.4h-2.3c-0.2-0.4-0.3-0.8-0.3-1.7v-3c0-0.8,0-1.5-0.8-1.5v6.2h-2.2zm2.2-7.8h0.3c0.4,0,0.5-0.2,0.5-0.8v-2c0-0.6-0.2-0.8-0.5-0.8h-0.3v3.7z"/><path fill="#fff" d="M289.2,161.5h3l1.4,13.3h-2.3l-0.3-3.6h-1.1l-0.4,3.6h-2l1.7-13.3zm1.6,7.8l-0.3-5.5h-0.1l-0.4,5.5h0.7z"/><polygon points="297.53,174.87,295.3,174.87,295.3,163.45,293.8,163.45,293.8,161.54,299.02,161.54,299.02,163.45,297.53,163.45,297.53,174.87" fill="#fff"/><rect height="13.339" width="2.228" y="161.54" x="299.68" fill="#fff"/><polygon points="303.41,174.87,303.41,161.54,306.5,161.54,307.63,170.2,307.66,170.2,307.66,161.54,309.4,161.54,309.4,174.87,306.75,174.87,305.18,164.39,305.14,164.42,305.14,174.87,303.41,174.87" fill="#fff"/><path fill="#fff" d="M314.4,173.9h-0c-0.3,0.8-1.1,1.2-1.7,1.2-1.5,0-2.2-1-2.2-2.4v-9c0-1.8,1.2-2.4,2.6-2.4,1.4,0,2.6,0.7,2.6,2.4v2.5h-2.2v-2.1c0-0.4-0.1-0.9-0.4-0.9-0.4,0-0.4,0.5-0.4,0.9v8.1c0,0.4,0.1,0.9,0.4,0.9,0.3,0,0.4-0.5,0.4-0.9v-2.3h-0.6v-1.9h2.8v6.8h-1.1l-0.2-1z"/><path fill="#fff" d="M319.8,174.9v-13.3h2.6c1.4,0,2.6,0.7,2.6,2.7v2.7c0,2-1.2,2.7-2.6,2.7h-0.4v5.2h-2.2zm2.2-7.1h0.3c0.4,0,0.5-0.2,0.5-0.9v-2.6c0-0.6-0.2-0.8-0.5-0.8h-0.3v4.3z"/><polygon points="325.98,174.87,325.98,161.54,330.14,161.54,330.14,163.45,328.2,163.45,328.2,166.5,330.07,166.5,330.07,168.41,328.2,168.41,328.2,172.97,330.14,172.97,330.14,174.87,325.98,174.87" fill="#fff"/><polygon points="330.96,174.87,330.96,161.54,334.05,161.54,335.19,170.2,335.23,170.2,335.23,161.54,336.96,161.54,336.96,174.87,334.3,174.87,332.73,164.39,332.7,164.42,332.7,174.87,330.96,174.87" fill="#fff"/><path fill="#fff" d="M337.9,161.5h2.6c1.4,0,2.6,0.7,2.6,2.4v8.5c0,1.8-1.3,2.4-2.6,2.4h-2.6v-13.3zm2.2,11.4h0.4c0.4,0,0.4-0.5,0.4-0.9v-7.8c0-0.4-0-0.9-0.4-0.9h-0.4v9.5z"/><rect height="13.339" width="2.232" y="161.54" x="344.28" fill="#fff"/><polygon points="347.68,174.87,347.68,161.54,350.78,161.54,351.92,170.2,351.95,170.2,351.95,161.54,353.68,161.54,353.68,174.87,351.03,174.87,349.45,164.39,349.42,164.42,349.42,174.87,347.68,174.87" fill="#fff"/><path fill="#fff" d="M358.7,173.9h-0c-0.3,0.8-1.1,1.2-1.7,1.2-1.5,0-2.2-1-2.2-2.4v-9c0-1.8,1.2-2.4,2.6-2.4,1.4,0,2.6,0.7,2.6,2.4v2.5h-2.2v-2.1c0-0.4-0.1-0.9-0.4-0.9s-0.4,0.5-0.4,0.9v8.1c0,0.4,0.1,0.9,0.4,0.9s0.4-0.5,0.4-0.9v-2.3h-0.6v-1.9h2.8v6.8h-1.1l-0.2-1z"/><path d="M325.7,228.7c-1.4-4.8-4-7.6-7.9-8.6,2.4-2.6,3.7-6.8,1.9-13.2-2.6-9-9-13.4-16.9-11.4l-17.9,4.6-0.4,0.1,14.8,52.6,12-3.1s-4.9-17.2-5.7-20.3c0.2-0.1,0.6-0.1,0.6-0.1,1.8-0.5,3.2-0.5,4.1,0,1.6,0.9,2.3,3.5,3.2,6.6l0.7,2.4c0.8,2.9,1.6,6,3.7,8.5l0.8,1,13.7-3.5-1.8-2.3c-0.9-1.1-3.2-7.9-4.8-13.4m-26.5-22.3c1.5-0.4,3.1-0.8,3.1-0.8,1.5-0.4,3.9-1,5.7,5.3,0.3,1.2,1.9,7.4-1.8,8.3,0,0-1.5,0.4-3.1,0.8-0.9-3.2-2.9-10.5-3.8-13.6"/><path d="M337.1,186.8l-16.1,4.1-1.9,0.5,14.8,52.6,12.2-3.1s-4.8-16.9-5.6-19.9c2.1-0.5,5.3-1.3,5.3-1.3,9.6-2.5,13.2-9.5,10.3-20-3.9-13.6-12.4-14.5-18.9-12.8m-3.2,10.8c1.8-0.5,3.7-1,3.7-1,2.1-0.5,4.5-0.5,6.5,6.2,0.9,3.2-0,6.7-2,7.2,0,0-2.4,0.6-4.4,1.1-0.9-3.1-3-10.5-3.8-13.6"/><polygon points="360.41,157.75,362.44,157.75,362.44,161.52,360.41,161.52,360.41,278.37,362.44,278.37,362.44,282.14,364.38,282.14,364.38,279.43,364.38,278.37,364.38,161.52,364.38,157.75,360.41,157.75"/></g></svg>