<svg xmlns="http://www.w3.org/2000/svg" width="215px" height="300px"><g><g><polygon fill="#FFFFFF" points="210.421,2.128 2.262,2.128 2.262,297.895 211.947,297.895 211.947,2.128"/><rect x="7.742" y="7.688" width="198.757" height="284.773"/><rect x="18.236" y="54.592" fill="#FFFFFF" width="177.63" height="176.644"/><path d="M212.7,0H0v300h214.2V0H212.7z M211.1,297.1H3.1V2.9h208.1V297.1z"/><path fill="#FFFFFF" d="M26.4,248.8c-0,0.3-0.1,0.6-0.1,0.9c-0.2,2.9-1.2,5.1-4.6,5.1c-5.1,0-5.4-3.1-5.4-7.3v-2.2c0.1-4.1,0.5-7,5.4-7c2.7,0,4.3,1.4,4.5,4.1c0,0.4,0.1,0.8,0.1,1.2h-3c-0.1-1-0-2.9-1.5-2.9c-2.4,0-2.2,2.8-2.2,4v4.4c0,1.3,0.1,3.4,2.2,3.4c1.7,0,1.5-2.6,1.5-3.6H26.4z"/><path fill="#FFFFFF" d="M28.7,245.2c0.1-4.1,0.5-7,5.4-7c4.9,0,5.2,3,5.4,7v2.2c0,4.2-0.3,7.3-5.4,7.3c-5,0-5.4-3.1-5.4-7.3V245.2z M31.9,249c0,1.3,0.1,3.4,2.2,3.4c2.2,0,2.2-2.2,2.2-3.7v-4c0-1.3,0.1-4.1-2.2-4.1c-2.4,0-2.2,2.8-2.2,4V249z"/><path fill="#FFFFFF" d="M49.6,238.6h3.1v15.8h-3.2l-2.4-5.6c-0.8-1.9-1.5-3.8-2.2-6.3h-0c0.1,1.3,0.2,2.9,0.3,4.5c0.1,1.6,0.2,3.1,0.2,4.4v3h-3.1V238.6h3.2l2.4,5.8c0.8,1.8,1.5,3.7,2.2,6.3h0c-0.1-1.4-0.2-3-0.3-4.5c-0.1-1.5-0.1-3-0.1-4.4V238.6z"/><polygon fill="#FFFFFF" points="54.537,238.61 64.772,238.61 64.772,240.928 61.205,240.928 61.205,254.404 58.12,254.404 58.12,240.928 54.537,240.928"/><polygon fill="#FFFFFF" points="66.521,254.404 66.521,238.61 75.177,238.61 75.177,240.928 69.601,240.928 69.601,244.911 74.738,244.911 74.738,247.229 69.601,247.229 69.601,252.094 75.177,252.094 75.177,254.404"/><path fill="#FFFFFF" d="M84.9,238.6h3.1v15.8h-3.2l-2.4-5.6c-0.8-1.9-1.5-3.8-2.2-6.3h-0c0.1,1.3,0.2,2.9,0.3,4.5c0.1,1.6,0.2,3.1,0.2,4.4v3h-3.1V238.6h3.2l2.4,5.8c0.8,1.8,1.4,3.7,2.2,6.3h0c-0.1-1.4-0.2-3-0.3-4.5c-0.1-1.5-0.2-3-0.2-4.4V238.6z"/><polygon fill="#FFFFFF" points="89.878,238.61 100.111,238.61 100.111,240.928 96.526,240.928 96.526,254.404 93.463,254.404 93.463,240.928 89.878,240.928"/><path fill="#FFFFFF" d="M110.5,247.6v6.8h-3.1V238.6h5.8c2.7,0,4.7,0.9,4.7,3.8c0,1.7-0.4,3.5-2.5,3.8v0.1c1.8,0.2,2.4,1.3,2.4,2.9c0,0.6-0.1,4.5,0.7,5v0.3h-3.4c-0.4-1-0.3-3-0.3-4c-0-1,0-2.3-1.1-2.6c-0.8-0.2-1.7-0.2-2.6-0.2H110.5zM110.5,245.3h2.4c1-0.1,1.8-0.7,1.8-2.3c0-1.8-0.8-2.1-1.9-2.1h-2.3V245.3z"/><path fill="#FFFFFF" d="M119.5,254.4l3.9-15.8h4.1l3.7,15.8h-3.3l-0.8-4h-3.6l-0.8,4H119.5z M124.1,248.1h2.6l-0.8-4.5c-0.2-0.7-0.2-1.4-0.3-2.2c-0-0.4-0.1-0.7-0.1-1.1h-0c-0.1,0.3-0.1,0.7-0.1,1.1c-0.1,0.7-0.2,1.4-0.3,2.2L124.1,248.1z"/><polygon fill="#FFFFFF" points="131.925,238.61 142.163,238.61 142.163,240.928 138.592,240.928 138.592,254.404 135.508,254.404 135.508,240.928 131.925,240.928"/><polygon fill="#FFFFFF" points="143.927,254.404 143.927,238.61 152.566,238.61 152.566,240.928 147.006,240.928 147.006,244.911 152.117,244.911 152.117,247.229 147.006,247.229 147.006,252.094 152.566,252.094 152.566,254.404"/><path fill="#FFFFFF" d="M155.1,254.4V238.6h6.4c0.8,0,2.2,0.3,3.2,1.8c0.7,1.1,0.9,2.9,0.9,5.5c0,3.1,0,6.7-2.5,8.2c-0.7,0.4-1.5,0.4-2.3,0.4H155.1zM159.5,252.1c2.7,0,2.9-1.4,2.9-6c0-3.8-0.4-5.2-2.2-5.2h-2v11.2H159.5z"/><path fill="#FFFFFF" d="M173.8,254.4V238.6h4.9c1.3,0,2.6,0.1,3.5,1.1c0.7,0.9,0.8,1.8,0.8,2.8c0,1.4-0.3,2.7-2,3.3v0c1.7,0.2,2.4,1.6,2.4,3.7c0,0.7-0,1.3-0.2,1.9c-0.7,2-1.9,2.8-4,2.8H173.8z M177.5,252.1c0.6,0,1.3,0.1,1.9-0.2c0.8-0.4,0.9-1.4,0.9-2.2c0-1.7-0.3-2.4-2.2-2.4h-1.2v4.8H177.5z M177.4,245c0.8,0,1.7,0,2.2-0.6c0.3-0.4,0.3-0.9,0.3-1.7c0-1.2-0.3-1.7-1.7-1.8h-1.4v4.1H177.4z"/><path fill="#FFFFFF" d="M189.9,242.7c0.3,0.8,0.6,1.6,0.7,2.4h0.1c0.2-1.2,0.6-2.1,1-3l1.5-3.6h3.4l-4.3,9.1v6.7h-3.1v-6.7l-4.3-9.1h3.3L189.9,242.7z"/><polygon fill="#FFFFFF" points="16.926,282.422 16.926,259.066 50.08,259.066 50.08,264.533 30.243,264.533 30.243,267.873 47.032,267.873 47.032,273.32 30.243,273.32 30.243,276.981 50.854,276.981 50.854,282.422"/><path fill="#FFFFFF" d="M84.2,265.9c-0.2-0.8-1-1.3-1.9-1.6c-0.9-0.3-2.1-0.4-3.4-0.4c-2.9,0-4.2,0.5-4.2,1.4c0,3.5,23.4,1.3,23.4,9.8c0,5.4-7.9,8-19,8c-10.7,0-17.7-3.6-18-7.8H73.7c0.3,0.8,1.1,1.5,2.2,1.8c1.1,0.4,2.5,0.6,3.8,0.6c3.3,0,5.5-0.6,5.5-1.7c0-3.5-23.4-1.1-23.4-10c0-5,7.5-7.5,17.6-7.5c11.3,0,16.4,3.3,17.4,7.4H84.2z"/><path fill="#FFFFFF" d="M122.3,274.3v8.1H109v-23.4h19.2c13.5,0,18,2.1,18,6.7c0,2.7-2.1,4.9-6.8,5.7c4.3,0.9,6.9,1.5,6.9,6.2c0,3-0.2,4.1,1.4,4.1v0.7h-13.5c-0.3-0.5-0.7-2-0.7-4.1c0-3.1-0.9-4.1-7.1-4.1H122.3z M122.3,269.2h5.2c4.1,0,6.3-0.6,6.3-2.2c0-1.6-2.2-2.4-5.4-2.4h-6.2V269.2z"/><path fill="#FFFFFF" d="M159.2,282.4v-23.4h19.4c9.2,0,16.4,1.3,16.4,5.9c0,2.4-2.7,4.2-5.3,5.1c4.4,0.7,6.8,2.8,6.8,5.4c0,5.2-6.9,7-17.5,7H159.2z M172.5,272.7v4.3h5.8c3.3,0,5.8-0.4,5.8-2.1c0-2-3.1-2.2-7.3-2.2H172.5z M172.5,264.5v3.9h5.5c2.7,0,4.6-0.7,4.6-2c0-1.8-2.6-1.9-5.4-1.9H172.5z"/><polygon fill="#FFFFFF" points="14.059,18.357 25.529,18.357 25.529,21.78 18.272,21.78 18.272,30.944 25.105,30.944 25.105,34.368 18.272,34.368 18.272,44.273 25.529,44.273 25.529,47.675 14.059,47.675"/><polygon fill="#FFFFFF" points="26.109,18.357 30.324,18.357 34.71,41.683 34.783,41.683 39.176,18.357 43.389,18.357 37.192,47.675 32.308,47.675"/><polygon fill="#FFFFFF" points="46.516,18.357 57.984,18.357 57.984,21.78 50.728,21.78 50.728,30.944 57.56,30.944 57.56,34.368 50.728,34.368 50.728,44.273 57.984,44.273 57.984,47.675 46.516,47.675"/><path fill="#FFFFFF" d="M59.8,18.4h6.5c6.2,0,6.8,1.6,6.8,8c0,3.9-0.6,5.6-4,6.7v0.1c2.9,0.3,3.8,1.7,3.8,4.5v6.4c0,1.1,0,2.5,0.2,3.7h-4c-0.4-0.7-0.5-1.5-0.5-2.6v-6.6c0-2.8-0.5-3.5-3.3-3.5h-1.4v12.7h-4.2V18.4z M64,31.5h1.1c3.3,0,3.8-0.6,3.8-5c0-4.4-0.3-4.8-2.9-4.8h-2V31.5z"/><polygon fill="#FFFFFF" points="73.648,18.357 77.862,18.357 81.521,30.706 81.611,30.706 85.812,18.357 89.527,18.357 83.663,35.662 83.663,47.675 79.463,47.675 79.463,35.662"/><path fill="#FFFFFF" d="M90.7,25.8c0-4.1,1.4-7.7,7.1-7.7c5.5,0,7.2,2.7,7.2,7.3v14.8c0,4.1-1.4,7.7-7.2,7.7c-5.4,0-7.1-2.7-7.1-7.3V25.8z M94.9,40.9c0,2.5,1.2,3.9,2.9,3.9c1.8,0,3-1.3,3-3.9V25.5c0-2.9-1-4.2-3-4.2c-1.9,0-2.9,1.3-2.9,4.2V40.9z"/><polygon fill="#FFFFFF" points="107.952,18.357 113.767,18.357 118.734,42.727 118.835,42.727 118.835,18.357 122.777,18.357 122.777,47.675 116.718,47.675 111.744,22.67 111.668,22.67 111.668,47.675 107.952,47.675"/><polygon fill="#FFFFFF" points="125.901,18.357 137.387,18.357 137.387,21.78 130.118,21.78 130.118,30.944 136.95,30.944 136.95,34.368 130.118,34.368 130.118,44.273 137.387,44.273 137.387,47.675 125.901,47.675"/><path fill="#FFFFFF" d="M153.1,23.9h-0.1c-0.9,1.1-1.7,1.9-3.3,3v-3.8c1-0.7,3.2-3.5,3.8-4.8h3.5v29.3h-4V23.9z"/><path fill="#FFFFFF" d="M163.2,25.3c0-5.3,1.3-7.2,6.3-7.2c5,0,6.3,2,6.3,7.2v15.4c0,5.3-1.3,7.2-6.3,7.2c-5,0-6.3-2-6.3-7.2V25.3z M167.2,41.4c0,1.8,0,3.6,2.3,3.6c2.3,0,2.3-1.8,2.3-3.6V24.7c0-1.8,0-3.7-2.3-3.7c-2.3,0-2.3,1.8-2.3,3.7V41.4z"/><polygon fill="#FFFFFF" points="187.793,39.113 178.891,39.113 178.891,35.705 187.793,35.705 187.793,27.136 191.314,27.136 191.314,35.705 200.206,35.705 200.206,39.113 191.314,39.113 191.314,47.675 187.793,47.675"/><path d="M34.3,179.9c5.6-1.6,11.1-4,14.2-6.8v37.5h10.7v-47H48.8c-3.9,3.3-8,5.2-14.4,7.2V179.9M30,89.3l114-33.8l11.4,35.8l-57.1,16.9l4.7,14.7l52.8-15.6l11.4,35.8l-52.7,15.6l4.9,15.4l59-17.5l11.4,35.8L73.9,226.8L30,89.3M108.9,188.2c0-15.6-8.4-24.8-22.3-24.8c-18.8,0-23.5,12.8-23.5,24.8c0,14.7,7.4,24.8,22.9,24.8C101.5,213,108.9,202.9,108.9,188.2M121.8,190.2h-8.1v4.5h8.1v7.8h4.6v-7.8h8.1v-4.5h-8.1v-7.8h-4.6V190.2z"/><path d="M72.9,187.8c0.1-15.7,6.4-19.4,13.5-19.3c8.1,0,12.6,6,12.6,19.8c-0,8.6-2.4,19.1-12.7,19.1C76.2,207.2,72.8,199.2,72.9,187.8"/><path d="M31,60h-3.1v8.9h-1.3v-8.9h-3.1v-0.9h7.5V60z M37.9,66.4h0l2.8-7.3h2.3v9.8h-1.3v-8.8h-0l-3.4,8.8h-0.8l-3.4-8.8h-0v8.8h-1.3v-9.8h2.3L37.9,66.4z"/></g></g></svg>