<svg xmlns="http://www.w3.org/2000/svg" width="215" height="300"><polygon fill="#fff" points="210.416,2.128 2.261,2.128 2.261,297.895 211.94,297.895 211.94,2.128"/><rect x="7.74" y="7.701" width="198.754" height="284.753"/><rect x="18.236" y="54.591" fill="#fff" width="177.625" height="176.642"/><path d="M212.7,0H0v300h214.2V0H212.7z M211.1,297.1H3.1V2.9h208.1V297.1z"/><path fill="#fff" d="M27.3,248.8c-0,0.3-0.1,0.6-0.1,0.9c-0.2,2.9-1.2,5.1-4.6,5.1c-5.1,0-5.4-3.1-5.4-7.3v-2.3c0.1-4,0.5-7,5.4-7c2.7,0,4.3,1.4,4.5,4.1c0,0.4,0.1,0.8,0.1,1.2h-3c-0.1-1-0-2.9-1.5-2.9c-2.4,0-2.2,2.8-2.2,4v4.4c0,1.3,0.1,3.4,2.2,3.4c1.7,0,1.5-2.6,1.5-3.6H27.3z"/><path fill="#fff" d="M29.6,245.2c0.1-4,0.5-7,5.4-7s5.2,3,5.4,7v2.3c0,4.2-0.3,7.3-5.4,7.3c-5,0-5.4-3.1-5.4-7.3V245.2z M32.7,249c0,1.3,0.1,3.4,2.2,3.4c2.2,0,2.2-2.2,2.2-3.7v-4c0-1.3,0.1-4.1-2.2-4.1c-2.4,0-2.2,2.8-2.2,4V249z"/><path fill="#fff" d="M50.5,238.6h3.1v15.8h-3.2l-2.4-5.6c-0.8-1.9-1.5-3.8-2.2-6.3h-0c0.1,1.3,0.2,2.9,0.3,4.5c0.1,1.6,0.1,3.1,0.1,4.4v3h-3.1v-15.8h3.2l2.4,5.8c0.8,1.8,1.5,3.7,2.2,6.3h0c-0.1-1.4-0.2-3-0.3-4.5c-0.1-1.5-0.2-3-0.2-4.4V238.6z"/><polygon fill="#fff" points="55.431,238.605 65.666,238.605 65.666,240.929 62.099,240.929 62.099,254.404  59.016,254.404 59.016,240.929 55.431,240.929"/><polygon fill="#fff" points="67.414,254.404 67.414,238.605 76.067,238.605 76.067,240.929 70.495,240.929  70.495,244.912 75.638,244.912 75.638,247.229 70.495,247.229 70.495,252.088 76.067,252.088 76.067,254.404"/><path fill="#fff" d="M85.8,238.6h3.1v15.8h-3.2l-2.4-5.6c-0.8-1.9-1.5-3.8-2.2-6.3h-0c0.1,1.3,0.2,2.9,0.3,4.5c0.1,1.6,0.2,3.1,0.2,4.4v3H78.5v-15.8h3.2l2.4,5.8c0.8,1.8,1.4,3.7,2.2,6.3h0c-0.1-1.4-0.2-3-0.3-4.5c-0.1-1.5-0.2-3-0.2-4.4V238.6z"/><polygon fill="#fff" points="90.768,238.605 101.006,238.605 101.006,240.929 97.421,240.929 97.421,254.404  94.353,254.404 94.353,240.929 90.768,240.929"/><path fill="#fff" d="M111.4,247.6v6.8h-3.1v-15.8h5.8c2.7,0,4.7,0.9,4.7,3.8c0,1.7-0.4,3.5-2.5,3.8v0.1c1.8,0.2,2.4,1.3,2.4,2.9c0,0.6-0.1,4.5,0.7,5v0.3h-3.4c-0.4-1-0.3-3-0.3-4c-0-1,0-2.3-1.1-2.6c-0.8-0.2-1.7-0.2-2.6-0.2H111.4z  M111.4,245.3h2.4c1-0.1,1.8-0.7,1.8-2.3c0-1.8-0.8-2.1-1.9-2.1h-2.3V245.3z"/><path fill="#fff" d="M120.4,254.4l3.9-15.8h4.1l3.7,15.8h-3.3l-0.8-4h-3.6l-0.8,4H120.4z M125,248.1h2.6l-0.8-4.5c-0.2-0.7-0.2-1.4-0.3-2.2c-0-0.4-0.1-0.7-0.1-1.1h-0c-0.1,0.3-0.1,0.7-0.1,1.1c-0.1,0.7-0.2,1.4-0.3,2.2L125,248.1z"/><polygon fill="#fff" points="132.816,238.605 143.054,238.605 143.054,240.929 139.482,240.929  139.482,254.404 136.401,254.404 136.401,240.929 132.816,240.929"/><polygon fill="#fff" points="144.818,254.404 144.818,238.605 153.458,238.605 153.458,240.929  147.899,240.929 147.899,244.912 153.011,244.912 153.011,247.229 147.899,247.229 147.899,252.088 153.458,252.088  153.458,254.404"/><path fill="#fff" d="M156,254.4v-15.8h6.4c0.7,0,2.2,0.3,3.2,1.8c0.7,1.1,0.9,2.9,0.9,5.5c0,3.1,0,6.7-2.5,8.2c-0.7,0.4-1.5,0.4-2.3,0.4H156z  M160.4,252.1c2.7,0,2.9-1.4,2.9-6c0-3.7-0.4-5.2-2.2-5.2h-2v11.2H160.4z"/><path fill="#fff" d="M174.7,254.4v-15.8h4.9c1.3,0,2.6,0.1,3.5,1.2c0.7,0.9,0.8,1.8,0.8,2.8c0,1.4-0.3,2.7-2,3.3v0c1.7,0.2,2.4,1.6,2.4,3.7c0,0.7-0,1.3-0.2,1.9c-0.7,2-1.8,2.8-4,2.8H174.7z M178.4,252.1c0.6,0,1.3,0.1,1.9-0.2c0.8-0.4,0.9-1.4,0.9-2.2c0-1.7-0.3-2.4-2.2-2.4h-1.2v4.8H178.4z  M178.3,245c0.7,0,1.7,0,2.2-0.6c0.3-0.4,0.3-0.9,0.3-1.7c0-1.2-0.3-1.8-1.7-1.8h-1.4v4.1H178.3z"/><path fill="#fff" d="M190.8,242.7c0.3,0.8,0.6,1.6,0.7,2.4h0.1c0.2-1.2,0.6-2.1,1-3l1.4-3.6h3.4l-4.3,9.1v6.7H190v-6.7l-4.3-9.1h3.3L190.8,242.7z"/><polygon fill="#fff" points="17.82,282.422 17.82,259.067 50.974,259.067 50.974,264.534 31.14,264.534  31.14,267.867 47.926,267.867 47.926,273.314 31.14,273.314 31.14,276.976 51.749,276.976 51.749,282.422"/><path fill="#fff" d="M85.1,265.9c-0.2-0.8-1-1.3-1.9-1.6c-0.9-0.3-2.1-0.4-3.4-0.4c-2.9,0-4.2,0.5-4.2,1.4c0,3.5,23.4,1.3,23.4,9.8c0,5.4-7.9,8-19,8c-10.7,0-17.7-3.6-18-7.8h12.8c0.3,0.8,1.1,1.5,2.2,1.8c1.1,0.4,2.5,0.6,3.8,0.6c3.3,0,5.5-0.6,5.5-1.7c0-3.5-23.4-1.1-23.4-10c0-5,7.5-7.5,17.6-7.5c11.3,0,16.4,3.3,17.4,7.4H85.1z"/><path fill="#fff" d="M123.2,274.3v8.1h-13.3v-23.4h19.2c13.5,0,18,2.1,18,6.7c0,2.7-2.1,4.9-6.8,5.7c4.3,0.9,6.9,1.5,6.9,6.2c0,3-0.2,4.1,1.4,4.1v0.7H135c-0.3-0.5-0.7-2-0.7-4.1c0-3.1-0.9-4-7.1-4H123.2z M123.2,269.2h5.2c4.1,0,6.3-0.6,6.3-2.2c0-1.6-2.2-2.4-5.4-2.4h-6.2V269.2z"/><path fill="#fff" d="M160.1,282.4v-23.4h19.4c9.2,0,16.4,1.3,16.4,5.9c0,2.4-2.7,4.2-5.3,5.1c4.4,0.7,6.8,2.8,6.8,5.4c0,5.2-6.9,7-17.5,7H160.1z M173.4,272.7v4.3h5.8c3.3,0,5.8-0.4,5.8-2.1c0-2-3.1-2.2-7.3-2.2H173.4z M173.4,264.5v3.9h5.5c2.6,0,4.6-0.7,4.6-2c0-1.8-2.6-1.8-5.4-1.8H173.4z"/><path d="M23.5,70.4c0-5.2,4.6-9.3,10.3-9.3c5.7,0,10.2,4.2,10.2,9.3c0,5.2-4.5,9.4-10.2,9.4C28,79.8,23.5,75.6,23.5,70.4M42.1,70.4c0-4.2-3.7-7.7-8.4-7.7c-4.7,0-8.5,3.5-8.5,7.7c0,4.3,3.8,7.7,8.5,7.7C38.4,78.1,42.1,74.7,42.1,70.4M31.6,71v4.7h-1.9v-11h3.9c2.2,0,4.5,0.6,4.5,3.1c0,1.3-0.8,2.3-2.4,2.6v0c1.6,0.3,1.8,1,2,2.2c0.2,1,0.3,2.2,0.7,3.2h-2.4c-0.1-0.6-0.3-1.3-0.4-2c-0.1-0.9-0.1-1.8-0.7-2.3c-0.5-0.4-1.1-0.4-1.8-0.4H31.6M33.5,69.3c1.8-0,2.2-0.8,2.2-1.6c0-0.8-0.4-1.3-1.9-1.3h-2.3v2.8H33.5z"/><polygon points="26.964,94.613 165.106,60.261 175.72,96.973 131.347,108.006 161.11,211.162 111.717,223.462  81.931,120.293 37.564,131.34"/><polygon fill="#fff" points="155.852,16.326 168.41,16.326 182.999,31.882 182.482,25.385 182.482,16.326  195.322,16.326 195.322,44.817 182.776,44.817 168.172,29.305 168.689,35.788 168.689,44.817 155.852,44.817"/><polygon fill="#fff" points="110.596,16.326 143.901,16.326 143.901,22.963 123.978,22.963 123.978,27.058  140.843,27.058 140.843,33.708 123.978,33.708 123.978,38.168 144.706,38.168 144.706,44.817 110.596,44.817"/><polygon fill="#fff" points="63.775,16.326 97.079,16.326 97.079,22.963 77.171,22.963 77.171,27.058  94.018,27.058 94.018,33.708 77.171,33.708 77.171,38.168 97.897,38.168 97.897,44.817 63.775,44.817"/><polygon fill="#fff" points="14.935,16.326 52.392,16.326 52.392,23.81 40.367,23.81 40.367,44.817  26.964,44.817 26.964,23.81 14.935,23.81"/></svg>